<svg width="15" height="15" viewBox="0 0 15 15" fill="none" xmlns="http://www.w3.org/2000/svg">
<path d="M14.4062 7.125C14.4062 7.58984 14.041 7.92188 13.6094 7.92188H8.29688V13.2344C8.29688 13.6992 7.93164 14.0645 7.5 14.0645C7.03516 14.0645 6.70312 13.6992 6.70312 13.2344V7.92188H1.39062C0.925781 7.92188 0.59375 7.58984 0.59375 7.1582C0.59375 6.69336 0.925781 6.32812 1.39062 6.32812H6.70312V1.01562C6.70312 0.583984 7.03516 0.251953 7.5 0.251953C7.93164 0.251953 8.29688 0.583984 8.29688 1.01562V6.32812H13.6094C14.041 6.32812 14.4062 6.69336 14.4062 7.125Z" fill="#3F31EB"/>
</svg>
